<svg width="29" height="30" viewBox="0 0 29 30" fill="none" xmlns="http://www.w3.org/2000/svg">
<path d="M25.4371 24.6016C13.1021 30.472 5.44683 25.5604 0.546468 22.5772C0.243235 22.3892 -0.272154 22.6211 0.175017 23.1348C1.80757 25.1143 7.1578 29.8855 14.1414 29.8855C21.1298 29.8855 25.2873 26.0723 25.8073 25.4071C26.3239 24.7475 25.959 24.3837 25.437 24.6016H25.4371ZM28.9013 22.6884C28.5701 22.2571 26.8871 22.1767 25.828 22.3068C24.7672 22.4331 23.175 23.0814 23.3134 23.4707C23.3844 23.6165 23.5294 23.5511 24.2581 23.4856C24.9888 23.4127 27.0359 23.1543 27.4624 23.7119C27.8909 24.2734 26.8095 26.948 26.612 27.3793C26.4212 27.8107 26.6849 27.9219 27.0434 27.6346C27.3969 27.3474 28.0369 26.6037 28.4663 25.5512C28.8929 24.493 29.153 23.0168 28.9012 22.6884H28.9013Z" fill="#FF9900"/>
<path fill-rule="evenodd" clip-rule="evenodd" d="M17.1431 12.623C17.1431 14.1633 17.182 15.4479 16.4034 16.8157C15.775 17.928 14.7797 18.6119 13.6675 18.6119C12.1494 18.6119 11.2652 17.4553 11.2652 15.7482C11.2652 12.3783 14.2847 11.7666 17.1431 11.7666V12.623ZM21.1301 22.2599C20.8687 22.4933 20.4906 22.5101 20.1959 22.3543C18.8836 21.2645 18.65 20.7585 17.9271 19.7185C15.7584 21.9318 14.2236 22.5934 11.4099 22.5934C8.08453 22.5934 5.49316 20.5415 5.49316 16.4321C5.49316 13.2236 7.23379 11.0381 9.70818 9.97056C11.8547 9.02512 14.852 8.85832 17.1431 8.59705V8.08541C17.1431 7.14559 17.2153 6.03347 16.6648 5.22164C16.181 4.49316 15.2579 4.19286 14.446 4.19286C12.9391 4.19286 11.5933 4.96577 11.2652 6.56726C11.1984 6.92324 10.9372 7.27359 10.5813 7.29024L6.74431 6.87881C6.42185 6.80638 6.06599 6.54511 6.15495 6.05011C7.0391 1.40141 11.2373 0 14.9964 0C16.9205 0 19.4339 0.511639 20.952 1.96861C22.8761 3.76468 22.6925 6.16135 22.6925 8.76936V14.9307C22.6925 16.7825 23.4599 17.5943 24.1828 18.5953C24.4386 18.9511 24.4942 19.3794 24.1717 19.6462C23.3654 20.319 21.9307 21.5703 21.1411 22.271L21.13 22.2599" fill="black"/>
<path d="M25.4371 24.6016C13.1021 30.472 5.44683 25.5604 0.546468 22.5772C0.243235 22.3892 -0.272154 22.6211 0.175017 23.1348C1.80757 25.1143 7.1578 29.8855 14.1414 29.8855C21.1298 29.8855 25.2873 26.0723 25.8073 25.4071C26.3239 24.7475 25.959 24.3837 25.437 24.6016H25.4371ZM28.9013 22.6884C28.5701 22.2571 26.8871 22.1767 25.828 22.3068C24.7672 22.4331 23.175 23.0814 23.3134 23.4707C23.3844 23.6165 23.5294 23.5511 24.2581 23.4856C24.9888 23.4127 27.0359 23.1543 27.4624 23.7119C27.8909 24.2734 26.8095 26.948 26.612 27.3793C26.4212 27.8107 26.6849 27.9219 27.0434 27.6346C27.3969 27.3474 28.0369 26.6037 28.4663 25.5512C28.8929 24.493 29.153 23.0168 28.9012 22.6884H28.9013Z" fill="#FF9900"/>
<path fill-rule="evenodd" clip-rule="evenodd" d="M17.1431 12.623C17.1431 14.1633 17.182 15.4479 16.4034 16.8157C15.775 17.928 14.7797 18.6119 13.6675 18.6119C12.1494 18.6119 11.2652 17.4553 11.2652 15.7482C11.2652 12.3783 14.2847 11.7666 17.1431 11.7666V12.623ZM21.1301 22.2599C20.8687 22.4933 20.4906 22.5101 20.1959 22.3543C18.8836 21.2645 18.65 20.7585 17.9271 19.7185C15.7584 21.9318 14.2236 22.5934 11.4099 22.5934C8.08453 22.5934 5.49316 20.5415 5.49316 16.4321C5.49316 13.2236 7.23379 11.0381 9.70818 9.97056C11.8547 9.02512 14.852 8.85832 17.1431 8.59705V8.08541C17.1431 7.14559 17.2153 6.03347 16.6648 5.22164C16.181 4.49316 15.2579 4.19286 14.446 4.19286C12.9391 4.19286 11.5933 4.96577 11.2652 6.56726C11.1984 6.92324 10.9372 7.27359 10.5813 7.29024L6.74431 6.87881C6.42185 6.80638 6.06599 6.54511 6.15495 6.05011C7.0391 1.40141 11.2373 0 14.9964 0C16.9205 0 19.4339 0.511639 20.952 1.96861C22.8761 3.76468 22.6925 6.16135 22.6925 8.76936V14.9307C22.6925 16.7825 23.4599 17.5943 24.1828 18.5953C24.4386 18.9511 24.4942 19.3794 24.1717 19.6462C23.3654 20.319 21.9307 21.5703 21.1411 22.271L21.13 22.2599" fill="white"/>
</svg>
