<svg width="24" height="25" viewBox="0 0 24 25" fill="none" xmlns="http://www.w3.org/2000/svg">
<path d="M12.7937 0C12.8619 0.0251799 12.9325 0.0167866 13.002 0.0203837C14.6034 0.110312 16.1294 0.491607 17.5705 1.19784C18.6178 1.71223 19.5646 2.3741 20.4191 3.16787C20.4515 3.19784 20.4479 3.21223 20.4191 3.24101C19.2797 4.3801 18.1414 5.52039 17.0044 6.66187C16.9709 6.69545 16.9541 6.69545 16.9206 6.66307C16.2635 6.04557 15.5154 5.57794 14.668 5.26979C14.1797 5.09233 13.6758 4.97482 13.1599 4.91367C12.7267 4.86211 12.2934 4.84533 11.8577 4.8717C10.9912 4.92326 10.1605 5.1223 9.37175 5.48561C7.74637 6.23501 6.55306 7.42926 5.75831 9.02998C5.61349 9.32135 5.49619 9.6247 5.38967 9.93166C4.93604 9.58034 4.48362 9.22902 4.03119 8.8777C3.55961 8.5108 3.08923 8.14389 2.61765 7.77698C2.31603 7.54197 2.01561 7.30576 1.7116 7.07314C1.58353 6.97482 1.46145 6.86931 1.32739 6.78058C1.33218 6.76739 1.33577 6.7542 1.34176 6.74221C1.87916 5.67866 2.55661 4.71343 3.37409 3.84652C4.17601 2.9952 5.07967 2.27338 6.08627 1.67986C6.83672 1.23741 7.62668 0.880096 8.45373 0.607914C9.14793 0.380096 9.8565 0.215827 10.5806 0.116307C11.0929 0.0455636 11.6076 0.00839329 12.1234 0C12.3472 0 12.5699 0 12.7937 0Z" fill="#E94335"/>
<path d="M5.38843 14.6248C5.48298 14.8849 5.57873 15.1451 5.69723 15.3957C6.47401 17.0372 7.66852 18.265 9.31186 19.0432C9.94622 19.3442 10.6141 19.5348 11.3095 19.6308C11.9091 19.7135 12.51 19.7135 13.1108 19.6547C14.0755 19.5612 14.9912 19.3046 15.8505 18.8502C16.048 18.7459 16.2371 18.6272 16.4262 18.5096C16.4322 18.5156 16.437 18.5216 16.443 18.5264C16.8224 18.8214 17.2018 19.1164 17.58 19.4113C18.0397 19.7686 18.4981 20.1272 18.9577 20.4845C19.4245 20.8478 19.8925 21.2111 20.3604 21.5744C20.1689 21.7615 19.9631 21.9317 19.7548 22.0984C18.8547 22.8142 17.8637 23.367 16.7877 23.771C16.0456 24.0492 15.2808 24.2483 14.4992 24.3766C13.9379 24.4689 13.3729 24.5216 12.8044 24.5456C12.6847 24.548 12.565 24.5516 12.4453 24.554C12.2179 24.554 11.9905 24.554 11.7631 24.554C11.6889 24.5276 11.6123 24.5372 11.5357 24.5324C10.9779 24.5001 10.425 24.4293 9.8768 24.3202C9.19217 24.1847 8.52311 23.9905 7.87199 23.7387C6.59849 23.2459 5.43989 22.5588 4.3962 21.6775C3.3896 20.8274 2.5398 19.8418 1.8468 18.7195C1.65889 18.4137 1.48055 18.102 1.32495 17.7782C2.17116 17.12 3.01856 16.4617 3.86477 15.8034C4.37465 15.4125 4.88094 15.0192 5.38843 14.6248Z" fill="#34A753"/>
<path d="M20.3617 21.5755C19.8937 21.2122 19.4269 20.8489 18.9589 20.4856C18.4993 20.1283 18.0397 19.7698 17.5813 19.4125C17.2019 19.1175 16.8224 18.8225 16.4442 18.5276C16.4382 18.5228 16.4334 18.5168 16.4275 18.5108C16.5866 18.3909 16.7506 18.277 16.9038 18.1487C17.9248 17.2938 18.5807 16.217 18.8608 14.9125C18.8727 14.8585 18.8631 14.8441 18.8045 14.8441C16.6501 14.8453 14.4957 14.8453 12.3413 14.8453C12.2551 14.8453 12.2658 14.8561 12.2658 14.7686C12.2658 13.2794 12.2658 11.7914 12.2646 10.3021C12.2646 10.2458 12.2766 10.229 12.3365 10.229C16.139 10.2302 19.9404 10.2302 23.7429 10.229C23.7884 10.229 23.8099 10.2374 23.8171 10.2866C23.8698 10.6379 23.9164 10.9904 23.9476 11.3441C23.9883 11.8117 24.0038 12.2806 23.999 12.7506C23.9907 13.4604 23.932 14.1655 23.8207 14.8669C23.6364 16.0228 23.3108 17.1343 22.8153 18.1954C22.2911 19.3177 21.604 20.3285 20.7375 21.2146C20.6154 21.3393 20.4933 21.4616 20.3617 21.5755Z" fill="#4285F3"/>
<path d="M1.32746 18.7805C1.14912 18.4412 0.995915 18.0911 0.855878 17.735C0.538699 16.9328 0.310091 16.1055 0.168857 15.2554C0.0395921 14.4748 -0.0118745 13.6882 0.0132603 12.898C0.0719084 11.1103 0.505186 9.41603 1.30471 7.81651C1.3107 7.80452 1.31908 7.79373 1.32626 7.78174C1.46151 7.87047 1.58359 7.97598 1.71046 8.0743C2.01328 8.30692 2.3149 8.54313 2.61652 8.77814C3.08809 9.14505 3.55848 9.51196 4.03005 9.87886C4.48248 10.2302 4.93611 10.5815 5.38854 10.9328C5.28201 11.265 5.19105 11.6007 5.12641 11.9448C5.02588 12.488 4.98398 13.0359 5.00672 13.5887C5.03665 14.2769 5.15634 14.946 5.38016 15.5983C5.38375 15.6079 5.38375 15.6175 5.38614 15.6271C4.87866 16.0204 4.37237 16.4148 3.86488 16.8081C3.02107 17.464 2.17486 18.1223 1.32746 18.7805Z" fill="#FABB05"/>
</svg>
