<svg width="28" height="28" viewBox="0 0 28 28" fill="none" xmlns="http://www.w3.org/2000/svg">
<defs>
    <radialGradient id="paint0_radial_218_18771" cx="0" cy="0" r="1" gradientUnits="userSpaceOnUse" gradientTransform="translate(7.43879 30.1485) rotate(-90) scale(27.7408 25.8082)">
        <stop stop-color="#FFDD55"/>
        <stop offset="0.1" stop-color="#FFDD55"/>
        <stop offset="0.5" stop-color="#FF543E"/>
        <stop offset="1" stop-color="#C837AB"/>
    </radialGradient>
    <radialGradient id="paint1_radial_218_18771" cx="0" cy="0" r="1" gradientUnits="userSpaceOnUse" gradientTransform="translate(-4.69015 2.01707) rotate(78.6806) scale(12.4044 51.1314)">
        <stop stop-color="#3771C8"/>
        <stop offset="0.128" stop-color="#3771C8"/>
        <stop offset="1" stop-color="#6600FF" stop-opacity="0"/>
    </radialGradient>
</defs>
<path d="M14.0054 0.00195312C8.16091 0.00195312 6.45161 0.00798239 6.11936 0.0355448C4.91996 0.135243 4.17363 0.324088 3.36054 0.728911C2.73392 1.04006 2.23974 1.40074 1.75201 1.90634C0.863775 2.82839 0.325447 3.96275 0.130573 5.31115C0.035827 5.96576 0.00826462 6.09927 0.00266601 9.44293C0.000512701 10.5575 0.00266601 12.0243 0.00266601 13.9918C0.00266601 19.8316 0.00912594 21.5391 0.037119 21.8708C0.134018 23.0378 0.317049 23.7721 0.704645 24.5753C1.44538 26.1128 2.86011 27.267 4.52677 27.6976C5.10386 27.8462 5.74124 27.928 6.55949 27.9668C6.90618 27.9818 10.4398 27.9926 13.9755 27.9926C17.5112 27.9926 21.047 27.9883 21.385 27.9711C22.3325 27.9265 22.8827 27.8526 23.491 27.6955C24.3174 27.4835 25.0875 27.0938 25.7477 26.5534C26.4079 26.013 26.9421 25.335 27.3131 24.5667C27.6932 23.7829 27.8859 23.0206 27.9731 21.9145C27.992 21.6733 28 17.8281 28 13.9881C28 10.1475 27.9914 6.30943 27.9724 6.06826C27.8841 4.94423 27.6914 4.18842 27.2991 3.38954C26.9772 2.73558 26.6197 2.24721 26.1008 1.74786C25.1749 0.863277 24.0422 0.32495 22.6923 0.13029C22.0383 0.0357601 21.9081 0.00776706 18.5618 0.00195312H14.0054Z" fill="url(#paint0_radial_218_18771)"/>
<path d="M14.0046 0C8.1597 0 6.4503 0.00603128 6.11802 0.0336028C4.91856 0.133334 4.17217 0.322243 3.35903 0.7272C2.73238 1.03846 2.23817 1.39926 1.75041 1.90502C0.862118 2.82738 0.323758 3.96212 0.128872 5.31097C0.0341201 5.9658 0.00655603 6.09935 0.000957085 9.44412C-0.00119636 10.559 0.000957085 12.0264 0.000957085 13.9945C0.000957085 19.8362 0.00741741 21.5444 0.0354121 21.8761C0.132317 23.0436 0.315359 23.7781 0.702979 24.5816C1.44376 26.1195 2.85857 27.2741 4.52534 27.7049C5.10246 27.8535 5.73988 27.9354 6.55819 27.9742C6.90489 27.9892 10.4387 28 13.9746 28C17.5106 28 21.0465 27.9957 21.3846 27.9785C22.3321 27.9339 22.8823 27.86 23.4907 27.7027C24.3171 27.4907 25.0874 27.1008 25.7476 26.5603C26.4078 26.0197 26.942 25.3414 27.3131 24.5729C27.6931 23.7889 27.8859 23.0263 27.9731 21.9198C27.992 21.6786 28 17.8321 28 13.9908C28 10.1489 27.9914 6.30958 27.9724 6.06833C27.8841 4.94393 27.6914 4.18786 27.2991 3.38872C26.9771 2.73454 26.6196 2.24601 26.1007 1.74649C25.1747 0.861611 24.042 0.323104 22.692 0.12838C22.038 0.0338182 21.9077 0.00581588 18.5613 0H14.0046Z" fill="url(#paint1_radial_218_18771)"/>
<path d="M14.0007 4C11.2849 4 10.944 4.01188 9.87735 4.06042C8.81276 4.10917 8.08608 4.27771 7.45024 4.525C6.79253 4.78042 6.23461 5.12208 5.67877 5.67813C5.12251 6.23396 4.78084 6.79187 4.52459 7.44937C4.27667 8.08542 4.10792 8.81229 4.06 9.87646C4.0125 10.9431 4 11.2842 4 14C4 16.7158 4.01208 17.0556 4.06042 18.1223C4.10938 19.1869 4.27792 19.9135 4.52501 20.5494C4.78063 21.2071 5.1223 21.765 5.67835 22.3208C6.23398 22.8771 6.7919 23.2196 7.4492 23.475C8.08546 23.7223 8.81234 23.8908 9.87673 23.9396C10.9434 23.9881 11.284 24 13.9997 24C16.7158 24 17.0556 23.9881 18.1222 23.9396C19.1868 23.8908 19.9143 23.7223 20.5506 23.475C21.2081 23.2196 21.7652 22.8771 22.3208 22.3208C22.8771 21.765 23.2187 21.2071 23.475 20.5496C23.7208 19.9135 23.8896 19.1867 23.9396 18.1225C23.9875 17.0558 24 16.7158 24 14C24 11.2842 23.9875 10.9433 23.9396 9.87667C23.8896 8.81208 23.7208 8.08542 23.475 7.44958C23.2187 6.79187 22.8771 6.23396 22.3208 5.67813C21.7646 5.12188 21.2083 4.78021 20.55 4.525C19.9125 4.27771 19.1854 4.10917 18.1208 4.06042C17.0541 4.01188 16.7145 4 13.9978 4H14.0007ZM13.1036 5.80208C13.3699 5.80167 13.667 5.80208 14.0007 5.80208C16.6708 5.80208 16.9872 5.81167 18.0416 5.85958C19.0166 5.90417 19.5458 6.06708 19.8983 6.20396C20.365 6.38521 20.6977 6.60188 21.0475 6.95187C21.3975 7.30188 21.6141 7.63521 21.7958 8.10187C21.9327 8.45396 22.0958 8.98312 22.1402 9.95812C22.1881 11.0123 22.1985 11.329 22.1985 13.9977C22.1985 16.6665 22.1881 16.9831 22.1402 18.0373C22.0956 19.0123 21.9327 19.5415 21.7958 19.8935C21.6146 20.3602 21.3975 20.6925 21.0475 21.0423C20.6975 21.3923 20.3652 21.609 19.8983 21.7902C19.5462 21.9277 19.0166 22.0902 18.0416 22.1348C16.9874 22.1827 16.6708 22.1931 14.0007 22.1931C11.3305 22.1931 11.014 22.1827 9.95985 22.1348C8.98484 22.0898 8.45567 21.9269 8.10296 21.79C7.63629 21.6087 7.30295 21.3921 6.95295 21.0421C6.60294 20.6921 6.38628 20.3596 6.20461 19.8927C6.06773 19.5406 5.9046 19.0115 5.86023 18.0365C5.81231 16.9823 5.80273 16.6656 5.80273 13.9952C5.80273 11.3248 5.81231 11.0098 5.86023 9.95563C5.90481 8.98063 6.06773 8.45146 6.20461 8.09896C6.38586 7.63229 6.60294 7.29896 6.95295 6.94896C7.30295 6.59896 7.63629 6.38229 8.10296 6.20062C8.45546 6.06312 8.98484 5.90063 9.95985 5.85583C10.8824 5.81417 11.2399 5.80167 13.1036 5.79958V5.80208ZM19.3387 7.4625C19.1013 7.4625 18.8693 7.53289 18.672 7.66477C18.4746 7.79664 18.3208 7.98408 18.23 8.20338C18.1392 8.42267 18.1154 8.66397 18.1618 8.89676C18.2081 9.12955 18.3224 9.34337 18.4903 9.51118C18.6582 9.67898 18.872 9.79324 19.1048 9.83949C19.3377 9.88575 19.5789 9.86193 19.7982 9.77104C20.0175 9.68015 20.2049 9.52627 20.3367 9.32888C20.4685 9.13149 20.5388 8.89944 20.5387 8.66208C20.5387 7.99958 20.0012 7.46208 19.3387 7.46208V7.4625ZM14.0007 8.86458C11.1647 8.86458 8.86526 11.164 8.86526 14C8.86526 16.836 11.1647 19.1344 14.0007 19.1344C16.8368 19.1344 19.1356 16.836 19.1356 14C19.1356 11.164 16.8366 8.86458 14.0005 8.86458H14.0007ZM14.0007 10.6667C15.8416 10.6667 17.3341 12.159 17.3341 14C17.3341 15.8408 15.8416 17.3333 14.0007 17.3333C12.1597 17.3333 10.6674 15.8408 10.6674 14C10.6674 12.159 12.1597 10.6667 14.0007 10.6667Z" fill="white"/>
</svg>
