<svg width="30" height="25" viewBox="0 0 30 25" fill="none" xmlns="http://www.w3.org/2000/svg">
<path d="M29.9999 11.5693C29.9999 9.51499 28.3293 7.84436 26.275 7.84436C25.4536 7.84436 24.6733 8.11256 24.0363 8.59866C21.9578 7.15525 19.2349 6.29479 16.3387 6.07688L17.9013 2.41154L22.4476 3.47315C22.5929 4.87931 23.77 5.98189 25.2134 5.98189C26.7536 5.98189 28.0071 4.72845 28.0071 3.18819C28.0071 1.64793 26.7536 0.394492 25.2134 0.394492C24.2375 0.394492 23.3789 0.899221 22.8797 1.66097L17.5661 0.418704C17.3523 0.368251 17.1276 0.394972 16.9317 0.494146C16.7357 0.593319 16.5811 0.758563 16.4952 0.960682L14.3347 6.02659C11.2076 6.13462 8.22768 7.01556 5.97782 8.55024C5.42135 8.14946 4.76513 7.90991 4.08133 7.85794C3.39753 7.80596 2.71264 7.94357 2.10198 8.25564C1.49132 8.5677 0.978559 9.04213 0.620078 9.62675C0.261596 10.2114 0.0712862 10.8835 0.0700771 11.5693C0.0686475 12.2256 0.242404 12.8704 0.57341 13.4372C0.904417 14.0039 1.38068 14.472 1.95303 14.7932C1.93865 14.9598 1.93182 15.127 1.93254 15.2942C1.93254 20.4291 7.78069 24.6066 14.9698 24.6066C22.1571 24.6066 28.0071 20.4291 28.0071 15.2942C28.0071 15.149 28.0015 15.0055 27.9922 14.8621C28.5982 14.552 29.1065 14.0803 29.4608 13.4991C29.8152 12.9179 30.0018 12.25 29.9999 11.5693V11.5693Z" fill="#FF4500"/>
<path d="M25.2135 4.11943C25.7278 4.11943 26.1447 3.7025 26.1447 3.18819C26.1447 2.67389 25.7278 2.25696 25.2135 2.25696C24.6992 2.25696 24.2822 2.67389 24.2822 3.18819C24.2822 3.7025 24.6992 4.11943 25.2135 4.11943Z" fill="#252525"/>
<path d="M10.3136 16.2255C11.3423 16.2255 12.1761 15.3916 12.1761 14.363C12.1761 13.3344 11.3423 12.5005 10.3136 12.5005C9.28503 12.5005 8.45117 13.3344 8.45117 14.363C8.45117 15.3916 9.28503 16.2255 10.3136 16.2255Z" fill="#252525"/>
<path d="M19.2699 20.5408C18.0191 21.4469 16.514 21.9347 14.9695 21.9347C13.425 21.9347 11.9199 21.4469 10.6691 20.5408C10.567 20.4704 10.4799 20.3802 10.4131 20.2757C10.3463 20.1712 10.3011 20.0544 10.2801 19.9321C10.2591 19.8098 10.2627 19.6846 10.2907 19.5638C10.3187 19.4429 10.3706 19.3289 10.4433 19.2284C10.5161 19.1279 10.6081 19.0429 10.7141 18.9785C10.8201 18.9141 10.9379 18.8715 11.0606 18.8532C11.1833 18.8349 11.3084 18.8413 11.4286 18.8721C11.5488 18.9028 11.6616 18.9573 11.7605 19.0322C12.6934 19.7094 13.8167 20.0742 14.9695 20.0742C16.1223 20.0742 17.2456 19.7094 18.1785 19.0322C18.2774 18.9573 18.3902 18.9028 18.5104 18.8721C18.6306 18.8413 18.7557 18.8349 18.8784 18.8532C19.0011 18.8715 19.1189 18.9141 19.2249 18.9785C19.3309 19.0429 19.423 19.1279 19.4957 19.2284C19.5684 19.3289 19.6203 19.4429 19.6483 19.5638C19.6764 19.6846 19.68 19.8098 19.6589 19.9321C19.6379 20.0544 19.5927 20.1712 19.5259 20.2757C19.4591 20.3802 19.3721 20.4704 19.2699 20.5408Z" fill="#252525"/>
<path d="M19.6261 16.2255C20.6548 16.2255 21.4886 15.3916 21.4886 14.363C21.4886 13.3344 20.6548 12.5005 19.6261 12.5005C18.5975 12.5005 17.7637 13.3344 17.7637 14.363C17.7637 15.3916 18.5975 16.2255 19.6261 16.2255Z" fill="#252525"/>
</svg>
