<svg width="27" height="23" viewBox="0 0 27 23" fill="none" xmlns="http://www.w3.org/2000/svg">
<path d="M0 20.4224C2.45455 22.0747 5.34965 23 8.43356 23C17.1189 23 24.2308 15.5977 24.2308 6.41093C24.2308 6.21265 24.2308 5.94828 24.2308 5.75001C24.5455 5.48564 26.4965 3.83334 27 2.77587C27 2.77587 25.4266 3.43678 23.8531 3.63506C23.979 3.50287 25.993 2.11495 26.2448 0.396556C26.2448 0.396556 25.1119 0.991385 23.5385 1.58621C23.2867 1.6523 23.035 1.78448 22.7203 1.85058C21.7133 0.727013 20.2657 0 18.6923 0C15.6084 0 13.1538 2.57759 13.1538 5.81609C13.1538 6.27874 13.2168 6.74138 13.2797 7.13793C12.8392 7.13793 6.35664 6.74139 1.88811 1.12357C1.88811 1.12357 -0.755245 4.89081 3.46154 8.79023C3.46154 8.79023 2.2028 8.72414 1.06993 8.06323C1.06993 8.06323 0.692306 12.6897 5.47552 13.8132C5.47552 13.8132 4.53146 14.2098 3.02097 13.9454C3.02097 13.9454 3.83916 17.6466 8.11888 17.977C8.11888 17.977 4.78322 21.1494 0 20.4224Z" fill="#00ACF3"/>
</svg>
