<svg width="60" height="57" viewBox="0 0 60 57" fill="none" xmlns="http://www.w3.org/2000/svg">
<path d="M30 22.11C28.1701 21.1341 26.0502 20.8492 24.0276 21.3072C22.005 21.7651 20.2146 22.9355 18.9835 24.6044C17.7525 26.2733 17.1629 28.3294 17.3225 30.3971C17.4822 32.4648 18.3803 34.406 19.8529 35.8662L27.8996 43.9129C28.1746 44.1902 28.5018 44.4103 28.8623 44.5605C29.2228 44.7106 29.6095 44.788 30 44.788C30.3905 44.788 30.7772 44.7106 31.1377 44.5605C31.4982 44.4103 31.8254 44.1902 32.1004 43.9129L40.1471 35.8662C41.6197 34.406 42.5178 32.4648 42.6775 30.3971C42.8371 28.3294 42.2475 26.2733 41.0165 24.6044C39.7854 22.9355 37.995 21.7651 35.9724 21.3072C33.9498 20.8492 31.8299 21.1341 30 22.11ZM35.9167 31.6654L30 37.5821L24.0833 31.6654C23.5739 31.1551 23.2878 30.4635 23.2878 29.7425C23.2878 29.0214 23.5739 28.3298 24.0833 27.8196C24.5936 27.3101 25.2852 27.024 26.0062 27.024C26.7273 27.024 27.4189 27.3101 27.9292 27.8196C28.2042 28.0968 28.5314 28.3169 28.8919 28.4671C29.2524 28.6173 29.639 28.6946 30.0296 28.6946C30.4201 28.6946 30.8068 28.6173 31.1673 28.4671C31.5278 28.3169 31.855 28.0968 32.13 27.8196C32.6467 27.3433 33.3275 27.0854 34.03 27.0996C34.7325 27.1139 35.4023 27.3994 35.8992 27.8962C36.396 28.3931 36.6815 29.0629 36.6958 29.7654C36.71 30.4679 36.4521 31.1487 35.9758 31.6654H35.9167ZM50.7083 9.27082H32.13L31.1833 6.31248C30.5696 4.57662 29.4312 3.0746 27.9259 2.0145C26.4206 0.954406 24.6228 0.38872 22.7817 0.395818H9.29166C6.93787 0.395818 4.68048 1.33086 3.01609 2.99525C1.35171 4.65963 0.416664 6.91702 0.416664 9.27082V47.7292C0.416664 50.0829 1.35171 52.3403 3.01609 54.0047C4.68048 55.6691 6.93787 56.6042 9.29166 56.6042H50.7083C53.0621 56.6042 55.3195 55.6691 56.9839 54.0047C58.6483 52.3403 59.5833 50.0829 59.5833 47.7292V18.1458C59.5833 15.792 58.6483 13.5346 56.9839 11.8702C55.3195 10.2059 53.0621 9.27082 50.7083 9.27082ZM53.6667 47.7292C53.6667 48.5138 53.355 49.2662 52.8002 49.821C52.2454 50.3758 51.4929 50.6875 50.7083 50.6875H9.29166C8.50707 50.6875 7.7546 50.3758 7.19981 49.821C6.64501 49.2662 6.33333 48.5138 6.33333 47.7292V9.27082C6.33333 8.48622 6.64501 7.73376 7.19981 7.17896C7.7546 6.62417 8.50707 6.31248 9.29166 6.31248H22.7817C23.4019 6.31088 24.0069 6.50424 24.5112 6.86523C25.0155 7.22621 25.3936 7.73656 25.5921 8.32415L27.1896 13.1758C27.388 13.7634 27.7662 14.2738 28.2705 14.6347C28.7748 14.9957 29.3798 15.1891 30 15.1875H50.7083C51.4929 15.1875 52.2454 15.4992 52.8002 16.054C53.355 16.6088 53.6667 17.3612 53.6667 18.1458V47.7292Z" fill="white"/>
</svg>
