<svg width="15" height="26" viewBox="0 0 15 26" fill="none" xmlns="http://www.w3.org/2000/svg">
<path d="M3.01712 0.979144C2.71575 0.66911 2.33219 0.500001 1.88014 0.500001C0.976028 0.500001 0.25 1.23281 0.25 2.16291C0.25 2.62796 0.44178 3.05073 0.756849 3.37486L10.3459 13.0141L0.756848 22.6251C0.441778 22.9493 0.249998 23.3861 0.249998 23.8371C0.249998 24.7672 0.976026 25.5 1.88013 25.5C2.33219 25.5 2.71575 25.3309 3.01712 25.0209L13.6747 14.3106C14.0582 13.9442 14.2363 13.4932 14.25 13C14.25 12.5068 14.0582 12.084 13.6747 11.7035L3.01712 0.979144Z" fill="#ADADAD"/>
</svg>
