<svg width="15" height="26" viewBox="0 0 15 26" fill="none" xmlns="http://www.w3.org/2000/svg">
<path d="M11.9829 25.0209C12.2842 25.3309 12.6678 25.5 13.1199 25.5C14.024 25.5 14.75 24.7672 14.75 23.8371C14.75 23.372 14.5582 22.9493 14.2431 22.6251L4.65411 12.9859L14.2431 3.37486C14.5582 3.05073 14.75 2.61387 14.75 2.16291C14.75 1.23281 14.024 0.5 13.1199 0.5C12.6678 0.5 12.2842 0.669109 11.9829 0.979143L1.32534 11.6894C0.941781 12.0558 0.763699 12.5068 0.75 13C0.75 13.4932 0.941781 13.916 1.32534 14.2965L11.9829 25.0209Z" fill="#ADADAD"/>
</svg>
