<svg width="15" height="8" viewBox="0 0 15 8" fill="none" xmlns="http://www.w3.org/2000/svg">
<path d="M0.287486 6.41879C0.101466 6.591 -2.97682e-07 6.81018 -3.08974e-07 7.06849C-3.31556e-07 7.58513 0.439685 8 0.997745 8C1.27678 8 1.53044 7.89041 1.72492 7.71037L7.50846 2.23092L13.2751 7.71037C13.4696 7.89041 13.7317 8 14.0023 8C14.5603 8 15 7.58513 15 7.06849C15 6.81018 14.8985 6.591 14.7125 6.41879L8.28636 0.328767C8.06652 0.109589 7.79594 0.00782747 7.5 -3.27835e-07C7.20406 -3.40771e-07 6.95039 0.109589 6.7221 0.328767L0.287486 6.41879Z" fill="#ADADAD"/>
</svg>
