<svg width="40" height="52" viewBox="0 0 40 52" fill="none" xmlns="http://www.w3.org/2000/svg">
<path d="M20 39.619C22.7625 39.619 25 37.4029 25 34.6667C25 31.9305 22.7625 29.7143 20 29.7143C17.2375 29.7143 15 31.9305 15 34.6667C15 37.4029 17.2375 39.619 20 39.619ZM35 17.3333H32.5V12.381C32.5 5.54667 26.9 0 20 0C13.1 0 7.5 5.54667 7.5 12.381H12.25C12.25 8.14667 15.725 4.70476 20 4.70476C24.275 4.70476 27.75 8.14667 27.75 12.381V17.3333H5C2.2375 17.3333 0 19.5495 0 22.2857V47.0476C0 49.7838 2.2375 52 5 52H35C37.7625 52 40 49.7838 40 47.0476V22.2857C40 19.5495 37.7625 17.3333 35 17.3333ZM35 47.0476H5V22.2857H35V47.0476Z" fill="white"/>
</svg>
