<svg width="60" height="61" viewBox="0 0 60 61" fill="none" xmlns="http://www.w3.org/2000/svg">
<path d="M41.8333 60.0833H6.33329C3.06561 60.0833 0.416626 57.4343 0.416626 54.1666V18.6666H6.33329V54.1666H41.8333V60.0833ZM53.6666 48.25H18.1666C14.8989 48.25 12.25 45.601 12.25 42.3333V6.83329C12.25 3.56561 14.8989 0.916626 18.1666 0.916626H53.6666C56.9343 0.916626 59.5833 3.56561 59.5833 6.83329V42.3333C59.5833 45.601 56.9343 48.25 53.6666 48.25ZM18.1666 6.83329V42.3333H53.6666V6.83329H18.1666ZM38.875 36.4166H32.9583V27.5416H24.0833V21.625H32.9583V12.75H38.875V21.625H47.75V27.5416H38.875V36.4166Z" fill="white"/>
</svg>
